# xmcd
#
# Track frame offsets: 
#        150
#        17912
#        28687
#        43420
#        61408
#        74586
#        87162
#        97118
#        111072
#        130283
#        143175
#        155328
#        170688
#        187354
#        208632
#        221707
#        235738
#        249189
#        260769
#        273029
#
# Disc length: 3826 seconds
#
# Revision: 0
# Processed by: cddbd v1.4PL0 Copyright (c) Steve Scherf et al.
# Submitted via: ExactAudioCopy v0.95a3
#
DISCID=330ef014
DTITLE=Michal Tucný - To byl Michal Tucný CD4
DYEAR=1900
DGENRE=
TTITLE0=Mám páru
TTITLE1=Diggy Liggy
TTITLE2=Jiznský rok
TTITLE3=Lojza a Líza
TTITLE4=Tak us nefnukej
TTITLE5=V ulickách mesta Bakersfield
TTITLE6=Deláme ,co muzem
TTITLE7=Az prijde ten den
TTITLE8=Starýho psa novým kouskum nenaucís
TTITLE9=Vís co ti slusí
TTITLE10=Fidlej celej den
TTITLE11=Starý dobrý western
TTITLE12=Slunce sháním
TTITLE13=More brázdím
TTITLE14=Mel jsem kdysi malou chajdu
TTITLE15=Já nic,já muzikant
TTITLE16=Sundej z hodin závazí
TTITLE17=Super písen pro super spatný den
TTITLE18=Michaluv song
TTITLE19=Country kolotoc
EXTD=
EXTT0=
EXTT1=
EXTT2=
EXTT3=
EXTT4=
EXTT5=
EXTT6=
EXTT7=
EXTT8=
EXTT9=
EXTT10=
EXTT11=
EXTT12=
EXTT13=
EXTT14=
EXTT15=
EXTT16=
EXTT17=
EXTT18=
EXTT19=
PLAYORDER=
